<svg version="1.2" xmlns="http://www.w3.org/2000/svg" viewBox="0 0 100 100" width="100" height="100">
	<title>Новый проект</title>
	<style>
		.s0 { fill: #4ec1f1 } 
		.s1 { fill: #ffffff } 
		.s2 { fill: #71b164 } 
		.s3 { fill: #008ddb } 
	</style>
	<g id="Сгруппировать_221">
		<path id="Контур_380" fill-rule="evenodd" class="s0" d="m8.91 0h38.51c1.17 0 2.33 0.24 3.41 0.69 1.08 0.45 2.06 1.1 2.89 1.93 0.82 0.83 1.48 1.81 1.93 2.89 0.45 1.08 0.68 2.24 0.69 3.41v1.48h-34.12q-1.17 0-2.32 0.23-1.15 0.23-2.23 0.68-1.08 0.45-2.05 1.1-0.97 0.65-1.79 1.48l-0.01 0.01q-0.83 0.82-1.48 1.79-0.65 0.98-1.1 2.06-0.45 1.08-0.68 2.22-0.23 1.15-0.23 2.32v34.05h-1.41c-1.17-0.01-2.33-0.24-3.41-0.69-1.08-0.45-2.06-1.1-2.89-1.93-0.83-0.83-1.48-1.81-1.93-2.89-0.45-1.08-0.69-2.24-0.69-3.41v-38.5c0-1.17 0.24-2.33 0.69-3.41 0.45-1.08 1.1-2.06 1.93-2.89 0.83-0.83 1.81-1.48 2.89-1.93 1.08-0.45 2.23-0.69 3.4-0.69z"/>
		<path id="Фигура 1" fill-rule="evenodd" class="s1" d="m96.42 31v61.64h-67.42v-61.64z"/>
		<path id="Контур_381" fill-rule="evenodd" class="s2" d="m22.22 13.02h40.04c1.21 0 2.42 0.24 3.54 0.71 1.12 0.47 2.14 1.15 3 2.01 0.86 0.86 1.55 1.88 2.01 3 0.47 1.13 0.71 2.33 0.72 3.55v1.1h-35.22q-1.36-0.07-2.71 0.16-1.34 0.23-2.61 0.74-1.26 0.52-2.38 1.31-1.11 0.78-2.04 1.78-0.88 1.12-1.55 2.38-0.67 1.26-1.1 2.62-0.43 1.36-0.61 2.78-0.18 1.41-0.11 2.84v33.6h-0.98c-1.21-0.01-2.42-0.25-3.54-0.72-1.12-0.46-2.14-1.15-3-2.01-0.86-0.86-1.55-1.88-2.01-3-0.47-1.12-0.71-2.33-0.72-3.54v-40.04c0.01-1.22 0.25-2.42 0.71-3.54 0.47-1.13 1.15-2.15 2.01-3.01 0.86-0.86 1.88-1.54 3-2.01 1.13-0.47 2.33-0.71 3.55-0.71z"/>
		<path id="Контур_382" fill-rule="evenodd" class="s3" d="m36.3 26.01h53.21c1.38 0 2.74 0.28 4.01 0.81 1.27 0.52 2.43 1.3 3.4 2.27 0.97 0.97 1.75 2.13 2.27 3.4 0.53 1.27 0.81 2.63 0.81 4.01v53.2c0 1.38-0.28 2.74-0.81 4.01-0.52 1.27-1.3 2.42-2.27 3.4-0.97 0.97-2.13 1.74-3.4 2.27-1.27 0.53-2.63 0.8-4.01 0.81h-53.21c-1.37-0.01-2.73-0.28-4-0.81-1.27-0.53-2.43-1.3-3.4-2.27-0.98-0.98-1.75-2.13-2.28-3.4-0.52-1.27-0.8-2.63-0.8-4.01v-51.7c0-7.5 3.56-11.99 10.48-11.99zm15.4 48.6c-0.7-0.79-2.87-6.93-6.11-8.61-1.64-0.85-6.28 3.05-6.8 5.23-0.27 1.12 0.86 2.06 1.4 2.77q0.76 0.92 1.46 1.89 0.7 0.97 1.35 1.98 0.64 1.01 1.22 2.06 0.58 1.05 1.09 2.13c1.36 2.45 1.54 3.49 4.85 3.91 4.01-0.14 4.29 0.17 5.92-2.42q0.48-0.64 0.93-1.29 0.46-0.65 0.89-1.31 0.43-0.67 0.85-1.35 0.41-0.67 0.8-1.36c8.89-15.47 16.39-24.26 29.26-36.62l0.9-3.39q-5.24 3.33-10.13 7.16-4.9 3.82-9.4 8.09-4.5 4.27-8.57 8.96-4.07 4.69-7.67 9.74c-0.58 0.84-1.08 2.32-2.24 2.43z"/>
	</g>
</svg>